<svg xmlns="http://www.w3.org/2000/svg" viewBox="0 0 108 108"><rect width="108" height="108" rx="24" fill="#0874da"/><path fill="#ffffff" d="M45,31 L63,31 L63,45 L77,70 L76,76 L71,79 L37,79 L32,76 L31,70 L45,45 Z"/><path fill="#ffd539" d="M41,58 L67,58 L75,72 L72,76 L36,76 L33,72 Z"/><path fill="#0874da" d="M44,27 L64,27 L64,33 L44,33 Z"/><path fill="#ffffff" d="M57,65 A3,3 0,1 0,63,65 A3,3 0,1 0,57,65"/><path fill="#ffffff" d="M44,70 A2,2 0,1 0,48,70 A2,2 0,1 0,44,70"/><path fill="#ffd539" d="M67,38 A4,4 0,1 0,75,38 A4,4 0,1 0,67,38"/></svg>