<svg xmlns="http://www.w3.org/2000/svg">
 <symbol id="shoot" viewBox="0 0 240 280">
  <path d="M120 222 Q113 150 120 67" fill="none" stroke="#24733a" stroke-width="12" stroke-linecap="round"/>
  <path d="M118 159 Q55 158 50 101 Q110 98 118 159M122 127 Q178 121 190 76 Q139 73 122 127" fill="#5ebc48" stroke="#24733a" stroke-width="4"/>
  <path d="M117 155L68 115M127 122L173 87" stroke="#daee8c" stroke-width="3"/>
  <g fill="#ffc847" stroke="#d69021" stroke-width="3"><ellipse cx="120" cy="34" rx="15" ry="22"/><ellipse cx="99" cy="53" rx="22" ry="15"/><ellipse cx="141" cy="53" rx="22" ry="15"/><ellipse cx="120" cy="70" rx="15" ry="20"/></g><circle cx="120" cy="53" r="14" fill="#75452e"/>
 </symbol>
 <symbol id="roots" viewBox="0 0 240 280"><path d="M120 211L119 263M119 228L91 248L80 259M120 240L148 257M119 221L144 236M120 249L105 268" fill="none" stroke="#f5e3aa" stroke-width="6" stroke-linecap="round"/></symbol>
 <symbol id="pot" viewBox="0 0 240 280"><path d="M65 218H175L163 270H78Z" fill="#e6a66b" stroke="#a2673d" stroke-width="4"/><ellipse cx="120" cy="218" rx="58" ry="13" fill="#765237" stroke="#a2673d" stroke-width="4"/></symbol>
 <symbol id="sun" viewBox="0 0 80 80"><g stroke="#efb62b" stroke-width="5" stroke-linecap="round"><path d="M40 5V14M40 66V75M5 40H14M66 40H75M15 15L21 21M59 59L65 65M15 65L21 59M59 21L65 15"/></g><circle cx="40" cy="40" r="21" fill="#ffe56b" stroke="#efb62b" stroke-width="3"/></symbol>
 <symbol id="water" viewBox="0 0 80 80"><path d="M40 7C32 22 15 39 15 52a25 25 0 0050 0C65 39 48 22 40 7" fill="#58bcf3" stroke="#1674b7" stroke-width="4"/><path d="M26 49Q23 59 34 64" fill="none" stroke="white" stroke-width="5" stroke-linecap="round"/></symbol>
</svg>
